<svg xmlns="http://www.w3.org/2000/svg" viewBox="0 0 64 64">
    <g id="_12-Degree">
        <ellipse cx="32" cy="24" rx="12" ry="4" style="fill:#ffdfb0"/>
        <path
            d="M32,26c-5.592,0-10.274-1.275-11.607-3A1.643,1.643,0,0,0,20,24c0,2.21,5.37,4,12,4s12-1.79,12-4a1.643,1.643,0,0,0-.393-1C42.274,24.725,37.592,26,32,26Z"
            style="fill:#ffc170"/>
        <circle cx="45" cy="42" r="3" style="fill:#ffdfb0"/>
        <circle cx="45" cy="42" r="3" style="fill:#ffdfb0"/>
        <circle cx="45" cy="42" r="2" style="fill:#ffcf94"/>
        <path
            d="M50.01,48l-.07.47L48,48.14l-.96-.16L45,50l-2.04-2.02-.96.16-1.94.33L39.99,48l-.34-2.31L37,44.47,38.39,42,37,39.53l2.65-1.22.41-2.78,2.9.49L45,34l2.04,2.02,2.9-.49.41,2.78L53,39.53,51.61,42,53,44.47l-2.65,1.22ZM48,42a3,3,0,1,0-3,3A3,3,0,0,0,48,42Z"
            style="fill:#ffac5a"/>
        <polygon points="48 48.14 48 52 48 56 45 54 42 56 42 52 42 48.14 42.96 47.98 45 50 47.04 47.98 48 48.14"
                 style="fill:#ff636e"/>
        <path
            d="M63,12V52H48V48.14l1.94.33.07-.47H55a4,4,0,0,1,4-4V20a4,4,0,0,1-4-4H9a4,4,0,0,1-4,4V44a4,4,0,0,1,4,4H39.99l.07.47L42,48.14V52H1V12Z"
            style="fill:#80dbff"/>
        <path
            d="M59,44a4,4,0,0,0-4,4H50.01l.34-2.31L53,44.47,51.61,42,53,39.53l-2.65-1.22-.41-2.78-2.9.49L45,34l-2.04,2.02-2.9-.49-.41,2.78L37,39.53,38.39,42,37,44.47l2.65,1.22L39.99,48H9a4,4,0,0,0-4-4V20a4,4,0,0,0,4-4H55a4,4,0,0,0,4,4ZM44,24c0-2.21-5.37-4-12-4s-12,1.79-12,4,5.37,4,12,4S44,26.21,44,24Z"
            style="fill:#f0f0f0"/>
        <rect x="21" y="31" width="2" height="2" style="fill:#848484"/>
        <rect x="25" y="31" width="18" height="2" style="fill:#848484"/>
        <rect x="13" y="35" width="23" height="2" style="fill:#848484"/>
        <path
            d="M18,45a1,1,0,0,1-.707-.293L16,43.414l-1.293,1.293A1,1,0,0,1,14,45H12V43h1.586l1.707-1.707a1,1,0,0,1,1.414,0L18,42.586l2.293-2.293a1,1,0,0,1,1.414,0L23.414,42H25v2H23a1,1,0,0,1-.707-.293L21,42.414l-2.293,2.293A1,1,0,0,1,18,45Z"
            style="fill:#848484"/>
        <rect x="27" y="42" width="2" height="2" style="fill:#848484"/>
        <rect x="24" y="23" width="2" height="2" style="fill:#ffac5a"/>
        <rect x="28" y="23" width="12" height="2" style="fill:#ffac5a"/>
        <rect x="54" y="22" width="2" height="2" style="fill:#9c9c9c"/>
        <rect x="54" y="26" width="2" height="7" style="fill:#9c9c9c"/>
        <rect x="58" y="15" width="2" height="2" style="fill:#1ea1e3"/>
        <rect x="58" y="47" width="2" height="2" style="fill:#1ea1e3"/>
        <rect x="4" y="15" width="2" height="2" style="fill:#1ea1e3"/>
        <rect x="4" y="47" width="2" height="2" style="fill:#1ea1e3"/>
        <rect x="1" y="12" width="2" height="40" style="fill:#19cffc"/>
        <rect x="61" y="12" width="2" height="40" style="fill:#19cffc"/>
        <path
            d="M45,50V45a3,3,0,0,1,0-6V34l-2.04,2.02-2.9-.49-.41,2.78L37,39.53,38.39,42,37,44.47l2.65,1.22L39.99,48l.07.47L42,48.14l.96-.16Z"
            style="fill:#fc9942"/>
        <polygon points="42.96 47.98 42 48.14 42 52 42 56 45 54 45 50 42.96 47.98" style="fill:#ff475a"/>
        <path d="M63,11H1a1,1,0,0,0-1,1V52a1,1,0,0,0,1,1H40V51H2V13H62V51H50v2H63a1,1,0,0,0,1-1V12A1,1,0,0,0,63,11Z"/>
        <path
            d="M8,48a1,1,0,0,0,1,1H38V47H9.9A5.013,5.013,0,0,0,6,43.1V20.9A5.013,5.013,0,0,0,9.9,17H54.1A5.013,5.013,0,0,0,58,20.9V43.1A5.013,5.013,0,0,0,54.1,47H52v2h3a1,1,0,0,0,1-1,3,3,0,0,1,3-3,1,1,0,0,0,1-1V20a1,1,0,0,0-1-1,3,3,0,0,1-3-3,1,1,0,0,0-1-1H9a1,1,0,0,0-1,1,3,3,0,0,1-3,3,1,1,0,0,0-1,1V44a1,1,0,0,0,1,1A3,3,0,0,1,8,48Z"/>
        <path
            d="M50.533,49.28a1,1,0,0,0,.4-.664l.325-2.241,2.159-.994a1,1,0,0,0,.453-1.4L52.755,42l1.116-1.982a1,1,0,0,0-.453-1.4l-2.16-.994-.325-2.241a1,1,0,0,0-.4-.665,1.011,1.011,0,0,0-.756-.177l-2.4.406L45.7,33.289a1,1,0,0,0-1.406,0l-1.679,1.659-2.4-.406a1,1,0,0,0-1.157.842l-.325,2.241-2.159.994a1,1,0,0,0-.453,1.4L37.245,42l-1.116,1.982a1,1,0,0,0,.453,1.4l2.16.994.325,2.241a1,1,0,0,0,1.157.842L41,49.326V56a1,1,0,0,0,1.555.832L45,55.2l2.445,1.63A1,1,0,0,0,49,56V49.326l.777.132A1,1,0,0,0,50.533,49.28Zm-4.978,3.888a1,1,0,0,0-1.11,0L43,54.131v-4.7l1.3,1.283a1,1,0,0,0,1.406,0L47,49.429v4.7Zm3.8-7.617L49.1,47.315l-1.892-.321a.994.994,0,0,0-.87.275L45,48.594l-1.34-1.325a1,1,0,0,0-.7-.289.941.941,0,0,0-.167.014l-1.891.321-.256-1.764a1,1,0,0,0-.572-.765L38.4,44.018l.861-1.527a1,1,0,0,0,0-.982L38.4,39.982l1.668-.768a1,1,0,0,0,.572-.765l.255-1.764,1.892.321a1,1,0,0,0,.87-.275L45,35.406l1.34,1.325a1,1,0,0,0,.87.275l1.891-.321.256,1.764a1,1,0,0,0,.572.765l1.668.768-.861,1.527a1,1,0,0,0,0,.982l.861,1.527-1.668.768A1,1,0,0,0,49.357,45.551Z"/>
        <path d="M45,38a4,4,0,1,0,4,4A4,4,0,0,0,45,38Zm0,6a2,2,0,1,1,2-2A2,2,0,0,1,45,44Z"/>
        <path
            d="M45,24c0-3.283-6.54-5-13-5s-13,1.717-13,5,6.54,5,13,5S45,27.283,45,24ZM32,27c-7.117,0-11-1.982-11-3s3.883-3,11-3,11,1.982,11,3S39.117,27,32,27Z"/>
        <rect x="21" y="31" width="2" height="2"/>
        <rect x="25" y="31" width="18" height="2"/>
        <rect x="13" y="35" width="23" height="2"/>
        <path
            d="M20.293,40.293,18,42.586l-1.293-1.293a1,1,0,0,0-1.414,0L13.586,43H12v2h2a1,1,0,0,0,.707-.293L16,43.414l1.293,1.293a1,1,0,0,0,1.414,0L21,42.414l1.293,1.293A1,1,0,0,0,23,44h2V42H23.414l-1.707-1.707A1,1,0,0,0,20.293,40.293Z"/>
        <rect x="27" y="42" width="2" height="2"/>
        <rect x="24" y="23" width="2" height="2"/>
        <rect x="28" y="23" width="12" height="2"/>
        <rect x="54" y="22" width="2" height="2"/>
        <rect x="54" y="26" width="2" height="7"/>
        <rect x="58" y="15" width="2" height="2"/>
        <rect x="58" y="47" width="2" height="2"/>
        <rect x="4" y="15" width="2" height="2"/>
        <rect x="4" y="47" width="2" height="2"/>
    </g>
</svg>